HIERARCHY
ROOT Hips
{
	OFFSET 0.00000 0.00000 0.00000
	CHANNELS 6 Xposition Yposition Zposition Zrotation Yrotation Xrotation 
	JOINT LHipJoint
	{
		OFFSET 0 0 0
		CHANNELS 3 Zrotation Yrotation Xrotation
		JOINT LeftHip
		{
			OFFSET 1.55020 -1.87941 0.79896
			CHANNELS 3 Zrotation Yrotation Xrotation
			JOINT LeftKnee
			{
				OFFSET 2.65269 -7.28822 0.00000
				CHANNELS 3 Zrotation Yrotation Xrotation
				JOINT LeftAnkle
				{
					OFFSET 2.61200 -7.17641 0.00000
					CHANNELS 3 Zrotation Yrotation Xrotation
					JOINT LeftToe
					{
						OFFSET 0.09338 -0.25656 1.92461
						CHANNELS 3 Zrotation Yrotation Xrotation
						End Site
						{
							OFFSET 0.00000 -0.00000 0.98480
						}
					}
				}
			}
		}
	}
	JOINT RHipJoint
	{
		OFFSET 0 0 0
		CHANNELS 3 Zrotation Yrotation Xrotation
		JOINT RightHip
		{
			OFFSET -1.56866 -1.87941 0.79895
			CHANNELS 3 Zrotation Yrotation Xrotation
			JOINT RightKnee
			{
				OFFSET -2.60199 -7.14892 0.00000
				CHANNELS 3 Zrotation Yrotation Xrotation
				JOINT RightAnkle
				{
					OFFSET -2.62841 -7.22151 0.00000
					CHANNELS 3 Zrotation Yrotation Xrotation
					JOINT RightToe
					{
						OFFSET -0.19532 -0.53663 1.93132
						CHANNELS 3 Zrotation Yrotation Xrotation
						End Site
						{
							OFFSET -0.00000 -0.00000 1.00896
						}
					}
				}
			}
		}
	}
	JOINT lowerback
	{
		OFFSET 0 0 0
		CHANNELS 3 Zrotation Yrotation Xrotation
		JOINT Chest
		{
			OFFSET 0.06381 2.07806 -0.22112
			CHANNELS 3 Zrotation Yrotation Xrotation
			JOINT Chest2
			{
				OFFSET -0.02881 2.08890 0.01825
				CHANNELS 3 Zrotation Yrotation Xrotation
				JOINT lowerneck
				{
					OFFSET 0 0 0
					CHANNELS 3 Zrotation Yrotation Xrotation
					JOINT Neck
					{
						OFFSET 0.02418 1.74325 -0.02023
						CHANNELS 3 Zrotation Yrotation Xrotation
						JOINT Head
						{
							OFFSET -0.01704 1.71677 0.04090
							CHANNELS 3 Zrotation Yrotation Xrotation
							End Site
							{
								OFFSET -0.00946 1.78238 0.01684
							}
						}
					}
				}
				JOINT LeftCollar
				{
					OFFSET 0 0 0
					CHANNELS 3 Zrotation Yrotation Xrotation
					JOINT LeftShoulder
					{
						OFFSET 3.39783 1.34157 0.16610
CHANNELS 3 Zrotation Xrotation Yrotation
						JOINT LeftElbow
						{
OFFSET 0 -5.152180 0.000000
CHANNELS 3 Zrotation Xrotation Yrotation
							JOINT LeftWrist
							{
OFFSET 0 -3.494590 0.000000
CHANNELS 3 Zrotation Xrotation Yrotation
								JOINT lhand
								{
									OFFSET 0 0 0
CHANNELS 3 Zrotation Xrotation Yrotation
									JOINT LFingers
									{
OFFSET 0 -0.512470 0.000000
CHANNELS 3 Zrotation Xrotation Yrotation
										End Site
										{
OFFSET 0 -0.413160 0.000000
										}
									}
								}
								JOINT LThumb
								{
OFFSET 0 0.000000 0.000000
CHANNELS 3 Zrotation Xrotation Yrotation
									End Site
									{
OFFSET 0 -0.419470 0.419470
									}
								}
							}
						}
					}
				}
				JOINT RightCollar
				{
					OFFSET 0 0 0
					CHANNELS 3 Zrotation Yrotation Xrotation
					JOINT RightShoulder
					{
						OFFSET -3.26224 1.05509 0.01188
CHANNELS 3 Zrotation Xrotation Yrotation
						JOINT RightElbow
						{
OFFSET 0 -5.443440 0.000000
CHANNELS 3 Zrotation Xrotation Yrotation
							JOINT RightWrist
							{
OFFSET 0 -3.584030 0.000000
CHANNELS 3 Zrotation Xrotation Yrotation
								JOINT rhand
								{
									OFFSET 0 0 0
CHANNELS 3 Zrotation Xrotation Yrotation
									JOINT RFingers
									{
OFFSET 0 -0.342490 0.000000
CHANNELS 3 Zrotation Xrotation Yrotation
										End Site
										{
OFFSET 0 -0.276120 0.000000
										}
									}
								}
								JOINT RThumb
								{
OFFSET 0 0.000000 0.000000
CHANNELS 3 Zrotation Xrotation Yrotation
									End Site
									{
OFFSET 0 -0.280340 0.280340
									}
								}
							}
						}
					}
				}
			}
		}
	}
}
MOTION
Frames: 11
Frame Time: 0.008333333333333333
-1.810600 17.119000 4.857100 -171.034000 -78.731600 172.894000 0.000000 0.000000 0.000000 -18.240000 0.048700 -29.120200 8.006900 16.124300 52.587500 -0.401000 -17.126100 -7.649300 0.569400 -4.832700 -13.432100 0.000000 0.000000 0.000000 25.212700 16.707000 -20.933300 -6.295000 -14.708300 46.154500 -1.432600 3.549200 -21.747900 -0.255800 3.254000 -8.986600 2.020800 -4.078900 15.893000 -2.619300 -5.487600 5.226800 -2.842300 -2.832200 -3.760100 8.919400 8.364200 0.160300 -7.659800 11.366000 5.445400 -3.392300 5.658800 2.541300 -0.000000 -0.000000 0.000000 12.330800 6.890700 -24.571800 63.586600 -57.192300 37.341000 27.725300 -7.651400 -5.221700 0.000000 0.000000 0.000000 -7.125000 0.000000 0.000000 0.872600 35.873100 0.195800 -0.000000 -0.000000 0.000000 -13.272400 14.563600 0.037100 -94.580500 -59.920600 -63.965700 -11.605300 -32.737800 30.734500 0.000000 0.000000 0.000000 7.125000 0.000000 -0.000000 22.805900 59.761800 -8.484500
-1.741269 17.117362 4.832443 -167.810402 -79.435551 170.031613 0.000000 0.000000 0.000000 -17.300307 -0.508401 -30.549392 8.441262 16.433467 54.135518 -0.487345 -17.116911 -6.506529 0.888211 -5.995215 -16.773887 0.000000 0.000000 0.000000 25.654341 16.088302 -21.656722 -6.214023 -14.632510 45.834597 -1.405305 3.705512 -21.505243 -0.236420 3.128987 -8.638128 2.376915 -4.432650 16.311076 -2.450887 -5.876106 5.181126 -2.753044 -3.023541 -4.072724 8.907390 8.494490 0.321889 -7.919016 11.554885 5.082370 -3.473004 5.753242 2.437031 0.000000 0.000000 0.000000 13.043121 6.068378 -24.978685 64.744839 -57.446421 38.315995 27.764060 -7.497544 -4.799621 0.000000 0.000000 0.000000 -7.125000 0.000000 0.000000 0.915818 35.399068 0.216090 0.000000 0.000000 0.000000 -13.149115 14.263259 0.034097 -94.626993 -59.918962 -64.006006 -11.337076 -32.806949 30.742598 0.000000 0.000000 0.000000 7.125000 0.000000 0.000000 23.090592 59.707391 -8.567114
-1.670791 17.129332 4.811147 -164.659758 -80.294015 167.398741 0.000000 0.000000 0.000000 -16.514554 -1.360266 -31.898253 8.771359 16.657467 55.294671 -0.600740 -17.443716 -5.310805 1.183415 -6.892721 -19.402290 0.000000 0.000000 0.000000 25.878516 15.256237 -22.538509 -6.082225 -14.507291 45.310261 -1.352598 3.919121 -21.048235 -0.218844 3.010777 -8.308918 2.568599 -4.805006 16.555212 -2.237636 -6.310105 5.136107 -2.523291 -3.235293 -4.275263 8.840460 8.617814 0.432493 -8.216021 11.730490 4.665568 -3.556330 5.839816 2.323500 0.000000 0.000000 0.000000 13.747656 4.857846 -25.298354 65.869716 -57.680132 39.265415 27.634043 -7.305327 -4.519759 0.000000 0.000000 0.000000 -7.125000 0.000000 0.000000 0.814277 35.077665 0.198263 0.000000 0.000000 0.000000 -13.174442 14.044149 0.105114 -94.835623 -59.911423 -64.186563 -11.154265 -32.939050 30.808648 0.000000 0.000000 0.000000 7.125000 0.000000 0.000000 23.333725 59.725361 -8.673582
-1.606388 17.156805 4.792993 -161.617815 -80.972786 164.883035 0.000000 0.000000 0.000000 -15.828681 -2.104257 -33.073183 9.060660 16.845764 56.298342 -0.716963 -18.019627 -4.381598 1.426341 -7.545354 -21.344593 0.000000 0.000000 0.000000 26.052948 14.454546 -23.323393 -5.924557 -14.354385 44.677281 -1.291261 4.179449 -20.509142 -0.201830 2.891856 -7.977815 2.636267 -5.061879 16.706679 -2.008657 -6.614141 5.116549 -2.242120 -3.382609 -4.376617 8.804551 8.697181 0.491528 -8.469249 11.842478 4.336671 -3.630388 5.895028 2.238788 0.000000 0.000000 0.000000 14.494304 3.423399 -25.622948 67.163608 -57.932681 40.360632 27.494292 -7.345337 -4.196518 0.000000 0.000000 0.000000 -7.125000 0.000000 0.000000 0.705643 34.707679 0.178069 0.000000 0.000000 0.000000 -13.248870 13.891973 0.160050 -95.135842 -59.900024 -64.446308 -11.116252 -33.068956 31.025523 0.000000 0.000000 0.000000 7.125000 0.000000 0.000000 23.551277 59.913398 -8.866863
-1.547738 17.198098 4.776674 -159.100763 -81.447702 162.816526 0.000000 0.000000 0.000000 -15.311584 -2.607753 -33.927574 9.304797 16.999290 57.137324 -0.823241 -18.669133 -3.737093 1.551615 -7.861227 -22.293805 0.000000 0.000000 0.000000 26.195101 13.729845 -23.883921 -5.729586 -14.160174 43.884770 -1.222279 4.480840 -19.895103 -0.184779 2.767524 -7.632164 2.508252 -5.222377 16.823028 -1.802521 -6.816022 4.909015 -1.890102 -3.476744 -4.632877 9.016553 8.682817 1.693575 -8.837937 11.888975 3.677822 -3.843200 5.946605 1.887660 0.000000 0.000000 0.000000 15.289680 2.388867 -26.007462 68.826846 -58.232131 41.772825 27.474180 -7.536048 -4.018861 0.000000 0.000000 0.000000 -7.125000 0.000000 0.000000 0.692734 34.506837 0.178466 0.000000 0.000000 0.000000 -13.399553 14.236366 0.470770 -95.490480 -59.885658 -64.753077 -11.106652 -33.226020 31.199579 0.000000 0.000000 0.000000 7.125000 0.000000 0.000000 23.705450 60.068926 -9.017458
-1.491586 17.248606 4.761722 -156.998975 -81.864532 161.121546 0.000000 0.000000 0.000000 -14.996824 -2.932741 -34.489366 9.528448 17.135426 57.899371 -0.876388 -19.174845 -3.730604 1.693120 -8.191445 -23.299241 0.000000 0.000000 0.000000 26.290710 13.014945 -24.289879 -5.496351 -13.920389 42.922510 -1.146939 4.779392 -19.217910 -0.174430 2.690047 -7.416994 2.362037 -5.257179 16.927322 -1.604320 -6.875932 5.011538 -1.585916 -3.505978 -4.541544 8.991973 8.699231 1.690011 -9.006279 11.904822 3.320371 -3.896440 5.956056 1.792182 0.000000 0.000000 0.000000 16.119410 0.707850 -26.455568 70.893819 -58.567888 43.533801 27.594926 -7.632318 -4.045824 0.000000 0.000000 0.000000 -7.125000 0.000000 0.000000 0.792059 34.542060 0.203201 0.000000 0.000000 0.000000 -13.491462 14.005458 0.525259 -95.674394 -59.878007 -64.912141 -11.196526 -33.332856 31.210911 0.000000 0.000000 0.000000 7.125000 0.000000 0.000000 23.621465 60.100165 -9.001030
-1.435674 17.304674 4.747163 -154.663691 -82.228170 159.201304 0.000000 0.000000 0.000000 -14.780845 -3.042422 -34.849280 9.765154 17.274923 58.699452 -0.817430 -19.285763 -4.763790 2.031785 -8.909998 -25.529355 0.000000 0.000000 0.000000 26.432689 12.380475 -24.598497 -5.234382 -13.641070 41.822046 -1.060516 5.062263 -18.430889 -0.174668 2.691840 -7.422004 2.194475 -5.293301 17.055263 -1.394236 -6.932485 4.978256 -1.247977 -3.530523 -4.601947 9.028251 8.685323 2.077901 -9.171954 11.904045 2.992634 -3.978257 5.966333 1.644690 0.000000 0.000000 0.000000 16.981817 -0.788332 -26.897462 73.019634 -58.876698 45.350541 27.800873 -7.592756 -4.072206 0.000000 0.000000 0.000000 -7.125000 0.000000 0.000000 0.961816 34.579857 0.246126 0.000000 0.000000 0.000000 -13.673959 13.947721 0.717587 -95.553497 -59.883081 -64.807527 -11.352973 -33.456898 31.090844 0.000000 0.000000 0.000000 7.125000 0.000000 0.000000 23.359311 60.027629 -8.853919
-1.380901 17.365485 4.733161 -152.011711 -82.508466 156.952922 0.000000 0.000000 0.000000 -14.622546 -2.905430 -34.988218 10.035071 17.428606 59.604245 -0.632062 -18.836641 -6.661076 2.515425 -9.852275 -28.511561 0.000000 0.000000 0.000000 26.645019 11.871994 -24.787724 -4.956410 -13.332476 40.629912 -0.960343 5.317276 -17.497790 -0.179691 2.730214 -7.528565 2.011760 -5.368185 17.199243 -1.201443 -7.037875 4.847738 -0.902299 -3.578124 -4.776472 9.239014 8.683687 2.698756 -9.355601 11.940741 2.808537 -4.097678 6.000067 1.516937 0.000000 0.000000 0.000000 18.005197 -2.394356 -27.173620 74.490866 -59.070790 46.610658 28.024987 -7.513171 -3.995844 0.000000 0.000000 0.000000 -7.125000 0.000000 0.000000 1.148351 34.502410 0.296049 0.000000 0.000000 0.000000 -13.826360 13.809596 0.963530 -94.743102 -59.912257 -64.106319 -11.324332 -33.609822 30.875628 0.000000 0.000000 0.000000 7.125000 0.000000 0.000000 23.212292 59.825540 -8.681142
-1.330053 17.430954 4.722611 -149.701224 -82.792570 154.998494 0.000000 0.000000 0.000000 -14.639380 -2.626834 -34.819957 10.339631 17.595532 60.616336 -0.379134 -17.821187 -8.634780 2.860481 -10.465522 -30.497958 0.000000 0.000000 0.000000 26.791997 11.357563 -24.873840 -4.675090 -13.006467 39.395763 -0.860213 5.432052 -16.537687 -0.183350 2.757762 -7.605059 1.866393 -5.421348 17.293618 -1.071491 -7.135193 5.086212 -0.671382 -3.629455 -4.541624 9.308508 8.778899 1.763662 -9.323444 12.023928 3.141768 -4.039892 6.020337 1.776447 0.000000 0.000000 0.000000 19.249767 -5.126865 -27.237849 75.047790 -59.138048 47.088451 28.222334 -7.387978 -3.888358 0.000000 0.000000 0.000000 -7.125000 0.000000 0.000000 1.312805 34.388417 0.342072 0.000000 0.000000 0.000000 -13.715656 12.669909 0.749555 -93.134173 -59.960145 -62.713871 -10.963228 -33.704759 30.586685 0.000000 0.000000 0.000000 7.125000 0.000000 0.000000 23.351727 59.479976 -8.541794
-1.283032 17.498351 4.718047 -148.018002 -83.149440 153.681967 0.000000 0.000000 0.000000 -14.887176 -2.310155 -34.396948 10.668371 17.768156 61.698972 -0.152575 -16.393338 -9.917263 2.844734 -10.435779 -30.403203 0.000000 0.000000 0.000000 26.788866 10.743668 -24.992097 -4.402973 -12.676877 38.172663 -0.781915 5.306116 -15.759352 -0.194042 2.834648 -7.818787 1.671433 -5.514985 17.298696 -0.987357 -7.284321 5.097219 -0.444796 -3.701062 -4.503020 9.404375 8.794198 1.815551 -9.277753 12.049064 3.182658 -4.041344 6.035068 1.785630 0.000000 0.000000 0.000000 20.503971 -7.422325 -27.270300 75.413314 -59.180184 47.402431 28.343042 -7.132068 -3.763362 0.000000 0.000000 0.000000 -7.125000 0.000000 0.000000 1.413893 34.251281 0.372998 0.000000 0.000000 0.000000 -13.636629 11.996134 0.650381 -91.551621 -59.990143 -61.343716 -10.540155 -33.749757 30.300456 0.000000 0.000000 0.000000 7.125000 0.000000 0.000000 23.559171 59.123732 -8.420723
-1.233223 17.562139 4.715686 -146.311436 -83.408462 152.461876 0.000000 0.000000 0.000000 -15.138678 -1.869057 -33.955713 11.011502 17.940303 62.818474 -0.012701 -14.848227 -10.290753 2.518843 -9.867726 -28.553006 0.000000 0.000000 0.000000 26.805396 10.285602 -25.261165 -4.152452 -12.359907 37.018310 -0.719605 5.237908 -15.112650 -0.228185 3.073268 -8.482953 1.487393 -5.622438 17.253885 -0.875133 -7.427894 4.753598 -0.178634 -3.760434 -4.812177 9.488776 8.756110 3.111833 -9.211179 12.065620 2.811300 -4.108049 6.074652 1.469140 0.000000 0.000000 0.000000 21.671004 -8.924011 -27.283046 76.090373 -59.256006 47.984074 28.298419 -6.900936 -3.655866 0.000000 0.000000 0.000000 -7.125000 0.000000 0.000000 1.378238 34.127715 0.367671 0.000000 0.000000 0.000000 -13.723352 12.147569 0.911257 -90.583847 -59.998628 -60.505621 -10.443651 -33.741760 30.040902 0.000000 0.000000 0.000000 7.125000 0.000000 0.000000 23.454075 58.866309 -8.234253
